<?xml version="1.0" encoding="utf-8"?>
<!-- Generator: Adobe Illustrator 25.0.0, SVG Export Plug-In . SVG Version: 6.00 Build 0)  -->
<svg version="1.1" id="Camada_1" xmlns="http://www.w3.org/2000/svg" xmlns:xlink="http://www.w3.org/1999/xlink" x="0px" y="0px"
	 viewBox="0 0 14.1 32.9" style="enable-background:new 0 0 14.1 32.9;" xml:space="preserve">
<style type="text/css">
	.st0{fill:none;}
	.st1{fill:#86868B;}
</style>
<rect y="-7" class="st0" width="15" height="44"/>
<path class="st1" d="M14,20.6l-3.5-3.5c1.9-2.3,1.6-5.7-0.8-7.6S4,7.9,2.1,10.2S0.5,16,2.8,17.9c2,1.6,4.9,1.6,6.9,0l3.5,3.5
	c0.2,0.2,0.6,0.2,0.8,0S14.2,20.8,14,20.6L14,20.6z M2,13.7c0-2.4,1.9-4.3,4.3-4.3c2.4,0,4.3,1.9,4.3,4.3c0,2.4-1.9,4.3-4.3,4.3
	C3.9,18,2,16.1,2,13.7z"/>
<rect y="-7" class="st0" width="15" height="44"/>
<path class="st1" d="M14,20.6l-3.5-3.5c1.9-2.3,1.6-5.7-0.8-7.6S4,7.9,2.1,10.2S0.5,16,2.8,17.9c2,1.6,4.9,1.6,6.9,0l3.5,3.5
	c0.2,0.2,0.6,0.2,0.8,0S14.2,20.8,14,20.6L14,20.6z M2,13.7c0-2.4,1.9-4.3,4.3-4.3c2.4,0,4.3,1.9,4.3,4.3c0,2.4-1.9,4.3-4.3,4.3
	C3.9,18,2,16.1,2,13.7z"/>
</svg>
